<?xml version="1.0" standalone="no"?>
<!DOCTYPE svg PUBLIC "-//W3C//DTD SVG 20010904//EN"
 "http://www.w3.org/TR/2001/REC-SVG-20010904/DTD/svg10.dtd">
<svg version="1.0" xmlns="http://www.w3.org/2000/svg"
 width="512.000000pt" height="512.000000pt" viewBox="0 0 512.000000 512.000000"
 preserveAspectRatio="xMidYMid meet">
<metadata>
Created by potrace 1.14, written by Peter Selinger 2001-2017
</metadata>
<g transform="translate(0.000000,512.000000) scale(0.100000,-0.100000)"
fill="#000000" stroke="none">
<path d="M1117 4593 c-1 -1 -82 -3 -179 -4 -109 -2 -174 -7 -171 -13 4 -5 -3
-7 -15 -4 -12 4 -22 3 -22 -2 0 -4 -13 -13 -30 -20 -16 -7 -42 -23 -57 -36
-15 -12 -32 -20 -37 -17 -6 3 -8 3 -4 -2 9 -9 -10 -47 -20 -41 -4 2 -8 -3 -9
-12 -1 -9 -11 -43 -22 -74 -12 -32 -22 -77 -22 -100 -1 -24 -9 -52 -18 -63
-15 -18 -15 -19 2 -6 20 15 23 2 5 -18 -10 -11 -10 -13 0 -7 17 10 15 -4 -5
-28 -14 -16 -15 -18 -2 -8 14 11 17 9 17 -15 0 -16 -5 -34 -12 -42 -8 -12 -8
-13 2 -7 6 4 12 3 12 -3 0 -5 -4 -13 -10 -16 -5 -3 -10 -12 -10 -18 0 -7 4 -6
10 3 8 13 10 12 10 -2 0 -10 -6 -18 -12 -18 -9 0 -9 -3 -3 -8 16 -11 19 -75 3
-66 -10 5 -10 4 -1 -6 10 -11 9 -18 -5 -34 -14 -17 -14 -18 -1 -8 14 11 17 9
17 -15 0 -16 -5 -34 -12 -42 -8 -12 -8 -13 2 -7 6 4 12 3 12 -3 0 -5 -4 -13
-10 -16 -5 -3 -10 -12 -10 -18 0 -7 4 -6 10 3 8 12 10 13 10 1 0 -8 -8 -24
-18 -35 -13 -15 -13 -18 -1 -8 14 10 16 7 17 -24 1 -22 -2 -32 -9 -28 -6 3 -5
-3 3 -15 10 -16 10 -23 0 -33 -6 -6 -12 -17 -12 -23 0 -5 5 -3 10 5 8 12 10
13 10 1 0 -8 -8 -24 -17 -35 -14 -15 -14 -18 -2 -8 14 10 16 7 17 -24 1 -22
-2 -32 -9 -28 -6 3 -5 -3 3 -15 10 -16 10 -23 0 -33 -6 -6 -12 -17 -12 -23 0
-5 5 -3 10 5 8 12 10 13 10 1 0 -8 -8 -24 -18 -35 -13 -15 -13 -18 -1 -8 14
10 16 7 17 -24 1 -22 -2 -32 -9 -28 -6 3 -5 -3 3 -15 10 -16 10 -23 0 -33 -6
-6 -12 -17 -12 -23 0 -5 5 -3 10 5 8 12 10 13 10 1 0 -8 -8 -24 -17 -35 -14
-15 -14 -18 -2 -8 14 10 16 7 17 -24 1 -25 -2 -33 -11 -28 -9 5 -9 4 0 -6 10
-11 9 -18 -5 -34 -14 -17 -14 -18 -1 -8 14 11 17 9 17 -15 0 -16 -5 -34 -12
-42 -8 -12 -8 -13 2 -7 6 4 12 3 12 -3 0 -5 -4 -13 -10 -16 -5 -3 -10 -12 -10
-18 0 -7 4 -6 10 3 8 13 10 12 10 -2 0 -10 -6 -18 -12 -18 -9 0 -9 -3 -3 -8
16 -11 19 -75 3 -66 -10 5 -10 4 -1 -6 10 -11 9 -18 -5 -34 -13 -16 -14 -18
-1 -8 14 11 16 7 16 -33 0 -29 -4 -42 -11 -38 -6 3 -5 0 2 -8 14 -15 17 -33 4
-25 -5 3 -9 -1 -9 -9 0 -8 4 -12 9 -9 4 3 8 -4 8 -16 0 -14 -4 -19 -12 -14
-10 6 -10 4 0 -7 14 -15 17 -33 4 -25 -5 3 -9 -1 -9 -9 0 -8 4 -12 9 -9 14 9
9 -9 -9 -30 -14 -16 -15 -18 -2 -8 14 11 17 9 17 -15 0 -16 -5 -34 -12 -42 -8
-12 -8 -13 2 -7 6 4 12 3 12 -3 0 -5 -4 -13 -10 -16 -5 -3 -10 -12 -10 -18 0
-7 4 -6 10 3 8 13 10 12 10 -2 0 -10 -6 -18 -12 -18 -9 0 -9 -3 -3 -8 16 -11
19 -75 3 -66 -10 5 -10 4 -1 -6 10 -11 9 -18 -5 -34 -13 -16 -14 -18 -1 -8 14
11 16 7 16 -33 0 -29 -4 -42 -11 -38 -6 3 -5 0 2 -8 14 -15 17 -33 4 -25 -5 3
-9 -1 -9 -9 0 -8 4 -12 9 -9 4 3 8 -4 8 -16 0 -14 -4 -19 -12 -14 -10 6 -10 4
0 -7 14 -15 17 -33 4 -25 -5 3 -9 -1 -9 -9 0 -8 4 -12 9 -9 14 9 9 -9 -9 -30
-14 -16 -15 -18 -2 -8 14 11 17 9 17 -15 0 -16 -5 -34 -12 -42 -8 -12 -8 -13
2 -7 6 4 12 3 12 -3 0 -5 -4 -13 -10 -16 -5 -3 -10 -12 -10 -18 0 -7 4 -6 10
3 8 13 10 12 10 -2 0 -10 -6 -18 -12 -18 -9 0 -9 -3 -3 -8 16 -11 19 -75 3
-66 -10 5 -10 4 -1 -6 10 -11 9 -18 -5 -34 -14 -17 -14 -18 -1 -8 14 11 17 9
17 -15 0 -16 -5 -34 -12 -42 -8 -12 -8 -13 2 -7 6 4 12 3 12 -3 0 -5 -5 -13
-10 -16 -6 -3 -10 -12 -10 -18 0 -7 4 -6 10 3 8 12 10 13 10 1 0 -8 -8 -24
-18 -35 -13 -15 -13 -18 -1 -8 14 10 16 7 17 -24 1 -22 -2 -32 -9 -28 -6 3 -5
-3 3 -15 10 -16 10 -23 0 -33 -6 -6 -12 -17 -12 -22 0 -6 5 -4 10 4 8 12 10
13 10 1 0 -8 -8 -24 -17 -35 -14 -15 -14 -18 -2 -8 14 10 16 7 17 -24 1 -22
-2 -32 -9 -28 -6 3 -5 -3 3 -15 10 -16 10 -23 0 -33 -6 -6 -12 -17 -12 -22 0
-6 5 -4 10 4 8 12 10 13 10 1 0 -8 -8 -24 -17 -35 -14 -15 -14 -18 -2 -8 14
10 16 7 17 -24 1 -22 -2 -32 -9 -28 -6 3 -5 -3 3 -15 10 -16 10 -23 0 -33 -6
-6 -12 -17 -12 -22 0 -6 5 -4 10 4 8 12 10 13 10 1 0 -8 -8 -24 -17 -35 -14
-15 -14 -18 -2 -8 14 10 16 7 17 -24 1 -25 -2 -33 -11 -28 -9 5 -9 4 0 -6 10
-11 9 -18 -5 -34 -14 -17 -14 -18 -1 -8 14 11 17 9 17 -15 0 -16 -5 -34 -12
-42 -8 -12 -8 -13 1 -7 7 4 13 3 13 -3 0 -5 -5 -13 -10 -16 -6 -3 -10 -12 -10
-18 0 -7 4 -6 10 3 8 13 10 12 10 -2 0 -10 -6 -18 -12 -18 -9 0 -9 -3 -3 -8
16 -11 19 -75 3 -66 -10 5 -10 4 -1 -6 10 -11 9 -18 -5 -34 -14 -17 -14 -18
-1 -8 14 11 17 9 17 -15 0 -16 -5 -34 -12 -42 -8 -12 -8 -13 2 -7 17 10 15 -4
-6 -28 -16 -20 -16 -20 1 -7 15 12 17 11 17 -3 0 -9 -6 -16 -12 -16 -9 0 -8
-4 2 -10 13 -8 13 -13 2 -31 -8 -11 -9 -18 -4 -15 5 3 12 -5 14 -19 3 -13 1
-22 -3 -19 -5 3 -9 0 -9 -5 0 -6 4 -11 10 -11 5 0 13 -12 16 -27 4 -16 16 -45
27 -66 18 -33 19 -40 7 -48 -12 -8 -10 -9 7 -4 16 4 23 1 27 -13 4 -11 17 -28
29 -38 l22 -19 -20 24 c-17 22 -15 21 17 -5 21 -16 42 -29 47 -29 5 0 18 -11
29 -25 17 -21 23 -23 34 -12 11 11 10 12 -7 7 -15 -5 -17 -4 -6 3 15 11 51 -5
51 -22 0 -4 -8 -3 -17 5 -10 7 -8 2 4 -11 18 -19 25 -22 35 -12 7 7 23 12 37
13 15 0 20 3 13 6 -6 2 -10 9 -7 13 9 14 58 -37 49 -52 -5 -10 -4 -10 5 -2 10
9 10 17 2 32 -14 26 -14 43 0 20 5 -10 17 -18 25 -18 8 0 13 4 10 8 -3 5 1 9
9 9 8 0 15 -4 15 -9 0 -4 5 -8 11 -8 5 0 8 4 5 8 -3 5 1 9 9 9 8 0 15 -4 15
-9 0 -4 5 -8 11 -8 5 0 8 4 5 8 -3 5 1 9 9 9 8 0 15 -4 15 -9 0 -4 5 -8 11 -8
5 0 8 4 5 8 -3 5 1 9 9 9 8 0 15 -4 15 -9 0 -4 10 -8 23 -8 18 0 19 2 7 10 -8
5 -10 10 -4 10 6 0 18 -8 25 -17 10 -11 10 -14 2 -9 -7 4 -13 2 -13 -4 0 -6
11 -8 25 -6 15 3 25 0 25 -7 0 -8 3 -8 9 1 11 19 15 19 34 4 9 -8 18 -9 21 -4
3 6 -2 16 -11 23 -9 8 -14 9 -10 3 3 -6 0 -11 -7 -11 -8 0 -12 6 -9 13 2 7 13
12 23 11 10 -1 16 -5 14 -9 -3 -4 1 -8 10 -8 8 0 17 6 19 13 4 9 6 9 6 -1 1
-8 6 -10 14 -5 21 13 77 10 90 -6 9 -12 9 -13 0 -7 -7 4 -13 3 -13 -3 0 -5 9
-9 20 -8 22 1 25 8 10 23 -7 7 -1 10 20 10 16 0 30 -3 30 -8 0 -4 5 -8 11 -8
5 0 8 4 5 8 -3 5 1 9 9 9 8 0 15 -4 15 -9 0 -4 5 -8 11 -8 5 0 8 4 5 8 -3 5 1
9 9 9 8 0 15 -4 15 -9 0 -4 5 -8 11 -8 5 0 8 4 5 8 -3 5 1 9 9 9 8 0 15 -4 15
-9 0 -4 10 -8 23 -8 18 0 19 2 7 10 -8 5 -10 10 -4 10 6 0 18 -8 25 -17 10
-11 10 -14 2 -9 -7 4 -13 2 -13 -4 0 -6 11 -8 25 -6 18 3 25 0 26 -12 0 -14 1
-15 7 -2 9 19 38 19 34 0 -3 -11 0 -11 12 0 20 15 20 15 -1 31 -9 8 -14 9 -10
3 3 -6 0 -11 -7 -11 -8 0 -12 6 -9 13 2 7 13 12 23 11 10 -1 17 -4 15 -7 -6
-9 84 -12 98 -3 18 11 38 12 31 2 -3 -5 0 -9 5 -9 6 0 11 5 11 12 0 6 6 3 14
-8 11 -14 11 -21 3 -26 -8 -5 -6 -8 6 -8 9 0 17 4 17 9 0 10 19 9 37 -2 19
-12 24 9 6 24 -9 8 -14 9 -10 3 3 -6 0 -11 -7 -11 -8 0 -12 6 -9 13 2 7 13 12
23 11 10 -1 16 -5 14 -9 -3 -4 2 -8 10 -8 9 0 16 5 16 12 0 6 6 3 14 -8 8 -10
10 -21 5 -22 -5 -2 -6 -8 -3 -14 4 -6 9 -5 14 3 12 18 43 21 36 3 -3 -8 -1
-14 4 -14 6 0 10 6 10 14 0 8 8 13 18 11 9 -1 16 -8 14 -16 -3 -10 0 -10 12 1
20 15 20 15 -1 31 -9 8 -14 9 -10 3 3 -6 0 -11 -7 -11 -8 0 -12 6 -9 13 2 7
13 12 23 11 10 -1 16 -5 14 -9 -3 -4 1 -8 10 -8 8 0 17 6 19 13 4 9 6 9 6 -1
1 -8 6 -10 14 -5 19 12 65 10 60 -3 -2 -6 -22 -10 -44 -9 -22 1 -43 -3 -46 -9
-3 -6 -2 -8 2 -3 5 4 17 -1 27 -10 13 -12 18 -13 16 -4 -2 7 5 15 15 16 14 3
17 -1 13 -13 -4 -12 -2 -12 9 3 19 24 18 23 38 7 9 -8 18 -9 21 -4 3 6 -2 16
-11 23 -9 8 -14 9 -10 3 3 -6 0 -11 -7 -11 -8 0 -12 6 -9 13 2 7 13 12 23 11
10 -1 16 -5 14 -9 -3 -4 2 -8 10 -8 9 0 16 5 16 12 0 6 6 3 14 -8 8 -10 10
-21 5 -22 -5 -2 -6 -8 -3 -14 4 -6 9 -5 14 3 12 18 43 21 36 3 -3 -8 -1 -14 4
-14 6 0 10 6 10 14 0 8 8 13 18 11 9 -1 16 -8 14 -16 -3 -10 0 -10 12 1 20 15
20 15 -1 31 -9 8 -14 9 -10 3 3 -6 0 -11 -7 -11 -8 0 -12 6 -9 13 2 7 13 12
23 11 10 -1 16 -5 14 -9 -3 -4 2 -8 10 -8 9 0 16 6 16 13 0 9 3 8 9 -2 5 -8
11 -9 15 -3 7 12 42 9 39 -4 -2 -5 -16 -9 -32 -9 -16 0 -31 -2 -33 -5 -2 -3
-1 -4 1 -2 2 1 13 -6 23 -15 15 -13 19 -14 16 -3 -2 8 2 15 7 16 6 1 21 5 33
9 18 6 20 10 10 16 -8 5 -9 9 -2 9 6 0 18 -8 25 -17 10 -11 10 -14 2 -9 -7 4
-13 2 -13 -4 0 -6 11 -8 25 -6 18 3 25 0 26 -12 0 -14 1 -15 7 -2 9 19 38 19
34 0 -3 -11 0 -11 12 0 20 15 20 15 -1 31 -9 8 -14 9 -10 3 3 -6 0 -11 -7 -11
-8 0 -12 6 -9 13 2 7 13 12 23 11 10 -1 17 -4 15 -7 -6 -9 84 -12 98 -3 18 11
38 12 31 2 -3 -5 0 -9 5 -9 6 0 11 5 11 12 0 6 6 3 14 -8 11 -14 11 -21 3 -26
-9 -6 -9 -8 0 -8 6 0 15 5 18 10 4 7 14 6 28 -2 20 -10 21 -10 8 5 -7 10 -20
16 -27 15 -7 -2 -14 1 -16 6 -2 5 5 10 15 12 9 1 17 -2 17 -7 0 -5 5 -9 11 -9
5 0 8 4 5 8 -3 5 1 9 9 9 8 0 15 -4 15 -9 0 -4 5 -8 11 -8 5 0 8 4 5 8 -3 5 1
9 9 9 8 0 15 -4 15 -9 0 -4 5 -8 11 -8 5 0 8 4 5 8 -3 5 1 9 9 9 8 0 15 -4 15
-9 0 -4 10 -8 23 -8 18 0 19 2 7 10 -8 5 -10 10 -4 10 6 0 18 -8 25 -17 10
-11 10 -14 2 -9 -7 4 -13 2 -13 -4 0 -6 11 -8 25 -6 15 3 25 0 25 -7 0 -8 3
-8 9 1 9 15 20 15 38 1 7 -6 13 -6 17 -1 3 6 -2 16 -11 23 -9 8 -14 9 -10 3 3
-6 0 -11 -7 -11 -8 0 -12 6 -9 13 2 7 13 12 23 11 10 -1 16 -5 14 -9 -3 -4 1
-8 10 -8 8 0 17 6 19 13 4 9 6 9 6 -1 1 -8 6 -10 14 -5 21 13 77 10 90 -6 9
-12 9 -13 0 -7 -7 4 -13 3 -13 -3 0 -5 9 -9 20 -8 22 1 25 8 10 23 -7 7 -1 10
20 10 16 0 30 -3 30 -8 0 -4 5 -8 11 -8 5 0 8 4 5 8 -3 5 1 9 9 9 8 0 15 -4
15 -9 0 -4 5 -8 11 -8 5 0 8 4 5 8 -3 5 1 9 9 9 8 0 15 -4 15 -9 0 -4 5 -8 11
-8 5 0 8 4 5 8 -3 5 1 9 9 9 8 0 15 -4 15 -9 0 -4 10 -8 23 -8 18 0 19 2 7 10
-8 5 -10 10 -4 10 6 0 18 -8 25 -17 10 -11 10 -14 2 -9 -7 4 -13 2 -13 -4 0
-6 11 -8 25 -6 18 3 25 0 26 -12 0 -14 1 -15 7 -2 9 19 38 19 34 0 -3 -11 0
-11 12 0 20 15 20 15 -1 31 -9 8 -14 9 -10 3 3 -6 0 -11 -7 -11 -8 0 -12 6 -9
13 2 7 13 12 23 11 10 -1 17 -4 15 -7 -6 -9 84 -12 98 -3 18 11 38 12 31 2 -3
-5 0 -9 5 -9 6 0 11 5 11 12 0 6 6 3 14 -8 11 -14 11 -21 3 -26 -8 -5 -6 -8 6
-8 9 0 17 4 17 9 0 10 19 9 37 -2 19 -12 24 9 6 24 -9 8 -14 9 -10 3 3 -6 0
-11 -7 -11 -8 0 -12 6 -9 13 2 7 13 12 23 11 10 -1 16 -5 14 -9 -3 -4 2 -8 10
-8 9 0 16 5 16 12 0 6 6 3 14 -8 8 -10 10 -21 5 -22 -5 -2 -6 -8 -3 -14 4 -6
9 -5 14 3 12 18 43 21 36 3 -3 -8 -1 -14 4 -14 6 0 10 6 10 14 0 8 8 13 18 11
9 -1 16 -8 14 -16 -3 -10 0 -10 12 1 20 15 20 15 -1 31 -9 8 -14 9 -10 3 3 -6
0 -11 -7 -11 -8 0 -12 6 -9 13 2 7 13 12 23 11 10 -1 16 -5 14 -9 -3 -4 1 -8
10 -8 8 0 17 6 19 13 4 9 6 9 6 -1 1 -8 6 -10 14 -5 18 11 36 12 43 2 3 -5 17
-9 32 -9 21 0 24 2 12 10 -8 5 -10 10 -4 10 5 0 15 -5 22 -12 9 -9 12 -9 12 2
0 9 5 8 16 -6 15 -18 15 -18 11 4 -5 20 -3 21 10 10 9 -7 18 -11 20 -10 3 2 8
1 11 -3 4 -4 1 -5 -7 -3 -7 2 -16 -4 -18 -12 -4 -12 -3 -12 5 -2 13 19 16 19
38 2 18 -14 18 -14 5 3 -7 9 -10 17 -5 17 5 0 2 5 -6 11 -13 9 -13 10 2 6 9
-3 18 -1 21 6 2 6 6 3 10 -7 4 -10 3 -15 -3 -11 -6 3 -10 2 -10 -3 0 -14 25
-22 39 -13 7 4 13 17 14 29 0 11 5 18 9 16 5 -3 6 -10 3 -15 -4 -5 -1 -9 5 -9
6 0 8 -5 4 -12 -4 -6 -3 -8 3 -5 6 4 9 19 7 34 -2 16 -1 22 2 16 3 -7 10 -13
15 -13 6 0 8 4 5 9 -3 5 1 12 10 15 8 3 12 11 9 16 -4 6 -3 10 2 9 22 -4 32 3
27 19 -5 14 -4 15 5 2 8 -12 4 -20 -17 -37 -15 -11 -24 -25 -20 -29 5 -4 8 -2
8 5 0 7 5 9 12 5 7 -5 8 -3 4 5 -6 8 -2 11 10 9 15 -2 19 3 18 29 0 18 3 30 7
27 4 -2 10 0 14 6 3 5 1 10 -6 10 -7 0 2 14 20 30 31 30 41 47 19 34 -7 -5 -8
-3 -2 7 4 8 9 20 10 27 2 8 9 21 17 30 8 10 17 24 21 32 5 9 2 8 -7 -2 -8 -10
-18 -18 -22 -18 -4 0 -3 6 3 13 6 7 9 25 7 40 -4 18 0 29 12 36 10 6 12 11 6
11 -15 0 -14 52 2 62 6 5 4 8 -5 8 -13 0 -13 1 0 10 10 6 11 10 3 10 -8 0 -12
14 -11 35 1 23 4 31 9 23 7 -10 9 -9 9 3 0 9 -8 20 -17 24 -16 6 -15 8 7 26
14 10 18 17 9 13 -24 -8 -32 11 -13 30 8 9 11 16 5 16 -15 0 -14 27 2 33 9 4
9 6 0 6 -7 1 -13 8 -13 16 0 8 6 15 13 15 8 0 8 3 2 8 -16 10 -17 64 -3 74 10
6 10 8 1 8 -7 0 -13 6 -13 14 0 8 6 17 13 19 10 4 10 6 0 6 -17 1 -17 28 0 34
9 4 9 6 0 6 -7 1 -13 8 -13 16 0 8 6 15 13 15 7 0 8 3 2 8 -6 4 -11 27 -12 52
-2 32 0 41 7 30 8 -13 10 -12 10 3 0 9 -4 17 -9 17 -5 0 -12 7 -15 16 -6 15
-4 15 10 3 16 -13 16 -12 6 8 -16 29 -15 34 3 27 8 -4 13 -10 10 -14 -3 -5 -1
-11 4 -14 5 -4 8 1 7 10 -1 9 -11 21 -20 26 -15 8 -16 12 -5 19 10 6 10 9 2 9
-8 0 -12 14 -11 35 1 23 4 31 9 23 7 -10 9 -9 9 3 0 9 -8 20 -17 24 -16 6 -15
8 7 26 14 10 18 17 9 13 -24 -8 -32 11 -13 30 8 9 11 16 5 16 -15 0 -14 27 2
33 9 4 9 6 0 6 -7 1 -13 8 -13 16 0 8 6 15 13 15 8 0 8 3 2 8 -16 10 -17 64
-3 74 10 6 10 8 1 8 -17 0 -17 27 0 33 9 4 9 6 0 6 -17 1 -17 28 -1 34 10 4
10 6 1 6 -7 1 -13 8 -13 16 0 8 6 15 13 15 7 0 8 3 2 8 -6 4 -11 27 -12 52 -2
32 0 41 7 30 8 -13 10 -12 10 3 0 9 -4 17 -9 17 -5 0 -12 7 -15 16 -6 15 -4
15 10 3 16 -13 16 -12 6 8 -16 29 -15 34 3 27 8 -4 13 -10 10 -14 -3 -5 -1
-11 4 -14 5 -4 8 1 7 10 -1 9 -11 21 -20 26 -15 8 -16 12 -5 19 10 6 10 9 2 9
-8 0 -12 14 -11 35 1 23 4 31 9 23 7 -10 9 -9 9 3 0 9 -8 20 -17 24 -16 6 -15
8 7 26 14 10 18 17 9 13 -24 -8 -32 11 -13 30 8 9 11 16 5 16 -15 0 -14 27 2
33 10 4 10 6 0 6 -7 1 -13 8 -13 16 0 8 6 15 13 15 8 0 8 3 2 8 -16 10 -17 64
-3 74 10 6 10 8 1 8 -17 0 -17 27 0 33 9 4 9 6 0 6 -17 1 -17 28 0 34 9 4 9 6
0 6 -7 1 -13 8 -13 16 0 8 6 15 13 15 7 0 8 3 2 8 -6 4 -11 27 -12 52 -2 32 0
41 7 30 8 -13 10 -12 10 3 0 9 -4 17 -9 17 -5 0 -12 7 -15 16 -6 15 -4 15 10
3 16 -13 16 -12 6 8 -16 29 -15 34 3 27 8 -4 13 -10 10 -14 -3 -5 -1 -11 4
-14 5 -4 8 1 7 10 -1 9 -11 21 -20 26 -15 8 -16 12 -5 19 10 6 10 9 2 9 -8 0
-12 14 -11 35 1 23 4 31 9 23 7 -10 9 -9 9 3 0 9 -8 20 -17 24 -16 6 -15 8 7
26 14 10 18 17 9 13 -24 -8 -32 11 -13 30 8 9 11 16 5 16 -15 0 -14 27 1 33
10 4 10 6 1 6 -7 1 -13 8 -13 16 0 8 6 15 13 15 8 0 8 3 2 8 -16 10 -17 64 -3
74 10 6 10 8 1 8 -7 0 -13 6 -13 14 0 8 6 17 13 19 10 4 10 6 0 6 -17 1 -17
28 0 34 9 4 9 6 0 6 -7 1 -13 8 -13 16 0 8 6 15 13 15 7 0 8 3 2 8 -6 4 -11
27 -12 52 -2 32 0 41 7 30 8 -13 10 -12 10 3 0 9 -4 17 -9 17 -5 0 -12 7 -15
16 -6 15 -4 15 10 3 16 -13 16 -12 6 8 -16 29 -15 34 3 27 8 -4 13 -10 10 -14
-3 -5 -1 -11 4 -14 5 -4 8 1 7 10 -1 9 -11 21 -20 26 -15 8 -16 12 -5 19 10 6
10 9 2 9 -8 0 -12 14 -11 35 1 23 4 31 9 23 7 -10 9 -9 9 3 0 9 -8 20 -17 24
-16 6 -15 8 7 26 14 10 18 17 9 13 -24 -8 -32 11 -13 30 8 9 11 16 5 16 -15 0
-14 27 2 33 9 4 9 6 0 6 -7 1 -13 8 -13 16 0 8 6 15 13 15 8 0 9 3 1 8 -15 9
-15 105 0 114 8 6 8 8 -1 8 -17 0 -17 27 0 33 9 4 9 6 0 6 -7 1 -13 8 -13 16
0 8 6 15 13 15 7 0 8 3 2 8 -6 4 -11 27 -12 52 -2 32 0 41 7 30 8 -13 10 -12
10 3 0 9 -4 17 -9 17 -5 0 -12 7 -15 16 -6 15 -4 15 11 3 14 -12 16 -12 8 0
-14 24 -16 71 -2 71 8 0 7 4 -3 10 -13 9 -13 10 0 10 13 0 13 2 1 9 -9 6 -14
29 -15 69 -1 33 -4 58 -8 55 -5 -2 -8 1 -8 6 0 6 6 11 13 11 7 0 5 4 -4 10 -9
5 -20 22 -24 37 -7 30 -42 84 -62 96 -7 5 -11 13 -7 18 3 5 2 9 -3 8 -16 -4
-43 13 -36 24 3 5 2 7 -4 4 -5 -3 -21 0 -35 7 -69 36 -96 37 -1706 39 -871 1
-1584 1 -1585 0z m3253 -4057 c0 -8 -4 -17 -8 -20 -4 -2 -8 4 -8 15 0 10 4 19
8 19 4 0 8 -6 8 -14z m-3535 -27 c-10 -15 -25 -10 -19 6 4 8 10 12 15 9 5 -3
7 -10 4 -15z m377 2 c-4 -11 -7 -12 -10 -2 -3 10 -6 10 -12 1 -5 -9 -9 -8 -13
2 -3 9 3 14 18 14 16 0 21 -4 17 -15z m480 0 c-4 -11 -7 -12 -10 -2 -3 10 -6
10 -12 1 -5 -9 -9 -8 -13 2 -3 9 3 14 18 14 16 0 21 -4 17 -15z m242 4 c-4 -8
-11 -12 -16 -9 -6 4 -5 10 3 15 19 12 19 11 13 -6z m159 -1 c-2 -6 -16 -10
-31 -8 -34 3 -34 3 -28 12 7 12 64 9 59 -4z m320 0 c-2 -6 -16 -10 -31 -8 -34
3 -34 3 -28 12 7 12 64 9 59 -4z m239 -3 c-4 -11 -7 -12 -10 -2 -3 10 -6 10
-12 1 -5 -9 -9 -8 -13 2 -3 9 3 14 18 14 16 0 21 -4 17 -15z m480 0 c-4 -11
-7 -12 -10 -2 -3 10 -6 10 -12 1 -5 -9 -9 -8 -13 2 -3 9 3 14 18 14 16 0 21
-4 17 -15z m480 0 c-4 -11 -7 -12 -10 -2 -3 10 -6 10 -12 1 -5 -9 -9 -8 -13 2
-3 9 3 14 18 14 16 0 21 -4 17 -15z m242 4 c-4 -8 -11 -12 -16 -9 -6 4 -5 10
3 15 19 12 19 11 13 -6z m159 -1 c-2 -6 -16 -10 -31 -8 -34 3 -34 3 -28 12 7
12 64 9 59 -4z"/>
<path d="M4600 4280 c-12 -7 -10 -9 7 -7 12 0 19 5 17 9 -6 10 -6 10 -24 -2z"/>
<path d="M4610 4143 c5 -2 8 -9 5 -13 -3 -5 -1 -11 4 -14 5 -4 8 2 7 11 -2 9
-8 18 -15 19 -6 1 -7 0 -1 -3z"/>
<path d="M4606 4041 c-3 -4 1 -17 10 -27 14 -18 15 -18 5 2 -6 12 -7 24 -4 28
3 3 4 6 0 6 -3 0 -8 -4 -11 -9z"/>
<path d="M4595 3680 c-3 -6 1 -7 9 -4 18 7 21 14 7 14 -6 0 -13 -4 -16 -10z"/>
<path d="M4615 3640 c-3 -5 -1 -10 4 -10 6 0 11 5 11 10 0 6 -2 10 -4 10 -3 0
-8 -4 -11 -10z"/>
<path d="M4606 3565 c4 -8 11 -15 16 -15 6 0 5 6 -2 15 -7 8 -14 15 -16 15 -2
0 -1 -7 2 -15z"/>
<path d="M4606 3401 c-3 -4 1 -17 10 -27 14 -18 15 -18 5 2 -6 12 -7 24 -4 28
3 3 4 6 0 6 -3 0 -8 -4 -11 -9z"/>
<path d="M4595 3040 c-3 -6 1 -7 9 -4 18 7 21 14 7 14 -6 0 -13 -4 -16 -10z"/>
<path d="M4615 3000 c-3 -5 -1 -10 4 -10 6 0 11 5 11 10 0 6 -2 10 -4 10 -3 0
-8 -4 -11 -10z"/>
<path d="M4606 2925 c4 -8 11 -15 16 -15 6 0 5 6 -2 15 -7 8 -14 15 -16 15 -2
0 -1 -7 2 -15z"/>
<path d="M4606 2761 c-3 -4 1 -17 10 -27 14 -18 15 -18 5 2 -6 12 -7 24 -4 28
3 3 4 6 0 6 -3 0 -8 -4 -11 -9z"/>
<path d="M4595 2400 c-3 -6 1 -7 9 -4 18 7 21 14 7 14 -6 0 -13 -4 -16 -10z"/>
<path d="M4615 2360 c-3 -5 -1 -10 4 -10 6 0 11 5 11 10 0 6 -2 10 -4 10 -3 0
-8 -4 -11 -10z"/>
<path d="M4606 2285 c4 -8 11 -15 16 -15 6 0 5 6 -2 15 -7 8 -14 15 -16 15 -2
0 -1 -7 2 -15z"/>
<path d="M4606 2121 c-3 -4 1 -17 10 -27 14 -18 15 -18 5 2 -6 12 -7 24 -4 28
3 3 4 6 0 6 -3 0 -8 -4 -11 -9z"/>
<path d="M4595 1760 c-3 -6 1 -7 9 -4 18 7 21 14 7 14 -6 0 -13 -4 -16 -10z"/>
<path d="M4615 1720 c-3 -5 -1 -10 4 -10 6 0 11 5 11 10 0 6 -2 10 -4 10 -3 0
-8 -4 -11 -10z"/>
<path d="M4606 1645 c4 -8 11 -15 16 -15 6 0 5 6 -2 15 -7 8 -14 15 -16 15 -2
0 -1 -7 2 -15z"/>
<path d="M4606 1481 c-3 -4 1 -17 10 -27 14 -18 15 -18 5 2 -6 12 -7 24 -4 28
3 3 4 6 0 6 -3 0 -8 -4 -11 -9z"/>
<path d="M4595 1120 c-3 -6 1 -7 9 -4 18 7 21 14 7 14 -6 0 -13 -4 -16 -10z"/>
<path d="M4615 1080 c-3 -5 -1 -10 4 -10 6 0 11 5 11 10 0 6 -2 10 -4 10 -3 0
-8 -4 -11 -10z"/>
<path d="M4606 1005 c4 -8 11 -15 16 -15 6 0 5 6 -2 15 -7 8 -14 15 -16 15 -2
0 -1 -7 2 -15z"/>
<path d="M4615 941 c-3 -5 -2 -12 3 -15 5 -3 9 1 9 9 0 17 -3 19 -12 6z"/>
<path d="M4590 858 c0 -4 4 -8 9 -8 6 0 12 4 15 8 3 5 -1 9 -9 9 -8 0 -15 -4
-15 -9z"/>
<path d="M510 776 c0 -2 8 -10 18 -17 15 -13 16 -12 3 4 -13 16 -21 21 -21 13z"/>
<path d="M4579 754 c-7 -9 -6 -12 6 -10 22 3 40 23 20 23 -8 0 -20 -6 -26 -13z"/>
<path d="M4575 720 c3 -5 8 -10 11 -10 2 0 4 5 4 10 0 6 -5 10 -11 10 -5 0 -7
-4 -4 -10z"/>
<path d="M4547 683 c-3 -3 -3 -12 0 -21 4 -10 2 -13 -5 -8 -8 5 -10 2 -5 -10
5 -15 7 -15 15 0 5 9 6 21 2 28 -5 8 -2 9 9 5 9 -3 18 -3 21 1 5 9 -29 13 -37
5z"/>
<path d="M586 623 c6 -4 14 -15 17 -23 5 -11 6 -9 4 4 -1 11 -9 21 -17 23 -10
3 -11 2 -4 -4z"/>
<path d="M4515 620 c-3 -5 -1 -10 4 -10 6 0 11 5 11 10 0 6 -2 10 -4 10 -3 0
-8 -4 -11 -10z"/>
<path d="M668 567 c7 -8 10 -16 7 -19 -3 -2 1 -5 9 -5 18 0 10 24 -11 31 -12
5 -13 4 -5 -7z"/>
<path d="M1314 508 c-3 -5 -9 -6 -14 -3 -5 3 -12 0 -16 -7 -4 -7 -3 -10 1 -5
5 4 17 -1 27 -10 15 -13 19 -14 16 -3 -2 8 3 15 10 16 6 1 14 3 17 4 3 1 9 3
14 4 26 3 15 12 -15 12 -20 0 -38 -4 -40 -8z"/>
<path d="M1438 513 c6 -2 9 -10 5 -16 -3 -7 -3 -9 2 -5 4 4 17 3 29 -3 19 -9
19 -8 -3 10 -13 12 -28 21 -35 20 -7 0 -6 -2 2 -6z"/>
<path d="M1840 505 c-10 -13 -11 -18 -1 -28 10 -9 11 -8 6 5 -6 14 -2 16 18
12 14 -2 29 1 33 7 4 8 3 9 -5 5 -6 -4 -18 -3 -25 3 -10 8 -17 7 -26 -4z"/>
<path d="M2800 505 c-10 -13 -11 -18 -1 -28 10 -9 11 -8 6 5 -6 14 -2 16 18
12 14 -2 29 1 33 7 4 8 3 9 -5 5 -6 -4 -18 -3 -25 3 -10 8 -17 7 -26 -4z"/>
<path d="M3234 508 c-3 -5 -9 -6 -14 -3 -5 3 -12 0 -16 -7 -4 -7 -3 -10 1 -5
5 4 17 -1 27 -10 15 -13 19 -14 16 -3 -2 8 3 15 10 16 6 1 14 3 17 4 3 1 9 3
14 4 26 3 15 12 -15 12 -20 0 -38 -4 -40 -8z"/>
<path d="M3358 513 c6 -2 9 -10 5 -16 -3 -7 -3 -9 2 -5 4 4 17 3 29 -3 19 -9
19 -8 -3 10 -13 12 -28 21 -35 20 -7 0 -6 -2 2 -6z"/>
<path d="M3760 505 c-10 -13 -11 -18 -1 -28 10 -9 11 -8 6 5 -6 14 -2 16 18
12 14 -2 29 1 33 7 4 8 3 9 -5 5 -6 -4 -18 -3 -25 3 -10 8 -17 7 -26 -4z"/>
<path d="M4114 509 c-3 -5 -9 -7 -14 -4 -5 3 -12 0 -16 -7 -4 -7 -3 -10 1 -5
5 4 17 -1 27 -10 15 -13 19 -14 16 -3 -2 8 3 14 10 15 6 0 13 4 15 9 3 12 -31
17 -39 5z"/>
<path d="M770 500 c0 -5 5 -10 11 -10 5 0 7 5 4 10 -3 6 -8 10 -11 10 -2 0 -4
-4 -4 -10z"/>
<path d="M885 500 c-3 -5 -3 -10 2 -10 4 0 1 -5 -7 -10 -8 -5 -10 -10 -4 -10
17 0 37 27 25 34 -5 4 -12 2 -16 -4z"/>
<path d="M960 499 c-13 -9 -13 -10 0 -6 8 2 24 0 35 -6 18 -9 19 -9 6 6 -16
20 -21 20 -41 6z"/>
<path d="M1016 498 c4 -5 14 -8 24 -5 9 2 26 0 36 -6 16 -8 17 -7 6 4 -14 16
-75 22 -66 7z"/>
<path d="M1104 495 c11 -8 24 -15 30 -15 5 0 1 7 -10 15 -10 8 -23 14 -29 14
-5 0 -1 -6 9 -14z"/>
<path d="M1496 498 c4 -5 14 -8 24 -5 9 2 26 0 36 -6 16 -8 17 -7 6 4 -14 16
-75 22 -66 7z"/>
<path d="M1584 495 c11 -8 24 -15 30 -15 5 0 1 7 -10 15 -10 8 -23 14 -29 14
-5 0 -1 -6 9 -14z"/>
<path d="M1767 490 c3 -11 9 -22 13 -25 5 -3 6 4 3 15 -3 11 -9 22 -13 25 -5
3 -6 -4 -3 -15z"/>
<path d="M2727 490 c3 -11 9 -22 13 -25 5 -3 6 4 3 15 -3 11 -9 22 -13 25 -5
3 -6 -4 -3 -15z"/>
<path d="M2936 498 c4 -5 14 -8 24 -5 9 2 26 0 36 -6 16 -8 17 -7 6 4 -14 16
-75 22 -66 7z"/>
<path d="M3024 495 c11 -8 24 -15 30 -15 5 0 1 7 -10 15 -10 8 -23 14 -29 14
-5 0 -1 -6 9 -14z"/>
<path d="M3416 498 c4 -5 14 -8 24 -5 9 2 26 0 36 -6 16 -8 17 -7 6 4 -14 16
-75 22 -66 7z"/>
<path d="M3504 495 c11 -8 24 -15 30 -15 5 0 1 7 -10 15 -10 8 -23 14 -29 14
-5 0 -1 -6 9 -14z"/>
<path d="M3687 490 c3 -11 9 -22 13 -25 5 -3 6 4 3 15 -3 11 -9 22 -13 25 -5
3 -6 -4 -3 -15z"/>
<path d="M4230 505 c0 -5 5 -17 10 -25 5 -8 10 -10 10 -5 0 6 -5 17 -10 25 -5
8 -10 11 -10 5z"/>
<path d="M4190 491 c0 -6 4 -13 10 -16 6 -3 7 1 4 9 -7 18 -14 21 -14 7z"/>
<path d="M2555 480 c-3 -6 1 -7 9 -4 18 7 21 14 7 14 -6 0 -13 -4 -16 -10z"/>
<path d="M4295 480 c3 -5 8 -10 11 -10 2 0 4 5 4 10 0 6 -5 10 -11 10 -5 0 -7
-4 -4 -10z"/>
</g>
</svg>
